<?xml version="1.0" encoding="UTF-8"?>
<svg id="Layer_1" xmlns="http://www.w3.org/2000/svg" version="1.1" viewBox="0 0 1000 1000">
  <!-- Generator: Adobe Illustrator 29.8.3, SVG Export Plug-In . SVG Version: 2.1.1 Build 3)  -->
  <defs>
    <style>
      .st0 {
        fill: #fff;
      }

      .st1 {
        fill: #ac2ad1;
      }

      .st2, .st3 {
        fill: #231f20;
      }

      .st3 {
        font-family: 'Alegreya Sans SC', AlegreyaSansSC-Regular, sans-serif;
        font-size: 38.41px;
        letter-spacing: .5em;
      }

      .st4 {
        font-family: Arial, 'Arial MT', sans-serif;
        font-size: 94.01px;
      }
    </style>
  </defs>
  <rect class="st0" y="1.79" width="1000" height="1000"/>
  <g>
    <path class="st1" d="M389.7,475.08c-1.49-9.15-3.72-18.05-6.65-26.64h-75.87l-35.25,60.77-36.84-62.2h-80.71c-20.26,0-36.68,16.42-36.68,36.68h0c0,20.26,16.42,36.68,36.68,36.68h39.4c4.58,0,8.29,3.71,8.29,8.29s-3.71,8.29-8.29,8.29h-103.64c-2.89-11.24-4.42-23.03-4.42-35.17,0-77.9,63.15-141.04,141.04-141.04,52.64,0,98.54,28.84,122.77,71.58h27.05c-26.23-56.48-83.45-95.65-149.82-95.65-91.19,0-165.11,73.92-165.11,165.11,0,12.07,1.31,23.84,3.77,35.17,2.06,9.47,4.92,18.64,8.53,27.43h117.57c19.73,0,35.73-16,35.73-35.73h0c0-19.73-16-35.73-35.73-35.73h-35.54c-5.46,0-9.89-4.43-9.89-9.89s4.43-9.89,9.89-9.89h64.84l52.55,91.23,50.4-89.32h41.49c1.66,8.65,2.54,17.58,2.54,26.71,0,77.9-63.15,141.04-141.04,141.04-49.64,0-93.28-25.64-118.41-64.4h-27.85c27.61,52.59,82.75,88.47,146.27,88.47,91.19,0,165.11-73.92,165.11-165.11,0-9.1-.75-18.02-2.16-26.71Z"/>
    <text class="st3" transform="translate(464.34 563.16)"><tspan x="0" y="0">RECRUITMENT</tspan></text>
    <text class="st4" transform="translate(410.55 511.6)"><tspan class="st1" x="0" y="0">Synergy</tspan><tspan class="st2" x="344.88" y="0">Vets</tspan></text>
  </g>
</svg>